<svg height="512" viewBox="0 0 60 59" width="512" xmlns="http://www.w3.org/2000/svg"><g id="Page-1" fill="none" fill-rule="evenodd"><g id="018---Health-Podcast" fill-rule="nonzero"><path id="Shape" d="m51 30c.0018858 9.5082688-6.3850868 17.8314335-15.57 20.29l-3.64 7.6c-.338327.678829-1.0315318 1.1078677-1.79 1.1078677s-1.451673-.4290387-1.79-1.1078677l-3.64-7.6c-10.5184568-2.8155225-17.14009799-13.2037619-15.25182605-23.9275452 1.88827195-10.7237833 11.66001185-18.22543305 22.50754335-17.2787762 10.8475316.9466568 19.172123 10.0275614 19.1742827 20.9163214z" fill="#f0c419"/><path id="Shape" d="m47.27 18.06c-8.6295306-5.2989596-19.8353042-3.5029165-26.3764947 4.2275814-6.5411906 7.7304979-6.4577119 19.0789851.1964947 26.7124186-7.9840288-3.7600491-12.76535419-12.1106817-11.96647328-20.8995654.79888091-8.7888836 7.00749558-16.1405664 15.53862508-18.3994414 8.5311294-2.25887502 17.5643237 1.057077 22.6078482 8.2990068z" fill="#f3d55b"/><path id="Shape" d="m41.28 4.28c-.1344044.00347623-.2678183-.02389072-.39-.08-4.6527103-1.96150978-9.74925-2.62837905-14.75-1.93-.5522847.07731986-1.0626801-.30771525-1.14-.86s.3077153-1.06268013.86-1.14c1.3726377-.18016296 2.7555894-.27035547 4.14-.27 4.0093654-.00855681 7.9790102.79421628 11.67 2.36.4368475.18609386.6825935.65373112.5880733 1.11906176-.0945203.46533063-.5032408.80002938-.9780733.80093824z" fill="#fac176"/><path id="Shape" d="m18.72 4.28c-.4748325-.00090886-.883553-.33560761-.9780733-.80093824-.0945202-.46533064.1512258-.9329679.5880733-1.11906176 1.1058277-.46526047 2.2377317-.86593445 3.39-1.2.5301934-.15463972 1.0853603.14980665 1.24.68.1546397.53019336-.1498066 1.08536026-.68 1.24-1.0774022.31182351-2.135841.68578295-3.17 1.12-.1221817.05610928-.2555956.08347623-.39.08z" fill="#fac176"/><path id="Shape" d="m39.73 8c-.1338089-.00249808-.2660137-.02961701-.39-.08-5.9736866-2.51015765-12.7063134-2.51015765-18.68 0-.5301934.21539104-1.1346089-.03980666-1.35-.57000001-.215391-.53019335.0398067-1.13460893.57-1.34999999 6.4724808-2.72017719 13.7675192-2.72017719 20.24 0 .3572656.06966679.6502258.32464048.7685254.66887495.1182996.34423448.043966.72543232-.195 1-.238966.27456769-.6062598.40079184-.9635254.33112505z" fill="#f18d46"/><path id="Shape" d="m1.29 35c-.50193203.0049401-.92975042-.3629837-1-.86-.73565876-5.368613-.0137759-10.8362712 2.09-15.83.1411199-.3286843.44687109-.5571146.80208004-.5992434.35520894-.0421287.70591097.1084444.92.395.21408904.2865556.25903987.6655591.11791996.9942434-1.46783756 3.4463376-2.22299613 7.1540981-2.22 10.9.00127091 1.2909985.08812803 2.5804927.26 3.86.08393996.5435979-.28689372 1.0529357-.83 1.14z" fill="#fac176"/><path id="Shape" d="m3.3 42.26c-.4012802-.000327-.7635008-.2404951-.92-.61-.46656577-1.1053221-.86726712-2.2373034-1.2-3.39-.12043787-.3496889-.03803401-.7372986.21424262-1.0077502.25227664-.2704517.63322686-.3795781.99043633-.2837188s.63234247.3810496.71532105.741469c.3105356 1.0745482.68452548 2.129734 1.12 3.16.21494317.5081056-.02221741 1.0942949-.53 1.31-.12398634.050383-.25619111.0775019-.39.08z" fill="#fac176"/><path id="Shape" d="m7 40.71c-.4012802-.000327-.7635008-.2404951-.92-.61-2.72017719-6.4724808-2.72017719-13.7675192 0-20.24.21570508-.5077826.80189442-.7449432 1.31-.53.50778259.2157051.74494317.8018944.53 1.31-2.50677448 5.974368-2.50677448 12.705632 0 18.68.21494317.5081056-.02221741 1.0942949-.53 1.31-.12218173.0561093-.2555956.0834762-.39.08z" fill="#f18d46"/><path id="Shape" d="m58.71 35h-.14c-.5467163-.0773971-.9272331-.5832605-.85-1.13.1790036-1.2823684.2725432-2.57522.28-3.87.0066246-3.7377935-.7416658-7.4384298-2.2-10.88-.1411199-.3286843-.0961691-.7076878.1179199-.9942434.2140891-.2865556.5647911-.4371288.9200001-.395.3552089.0421287.6609601.270559.80208.5992434 2.0864342 4.9843879 2.7978147 10.437154 2.06 15.79-.0605761.501169-.4851853.8785995-.99.88z" fill="#fac176"/><path id="Shape" d="m56.7 42.26c-.1338089-.0024981-.2660137-.029617-.39-.08-.5077826-.2157051-.7449432-.8018944-.53-1.31.4354745-1.030266.8094644-2.0854518 1.12-3.16.0829786-.3604194.3581116-.6456097.715321-.741469.3572095-.0958593.7381597.0132671.9904364.2837188.2522766.2704516.3346805.6580613.2142426 1.0077502-.3327329 1.1526966-.7334342 2.2846779-1.2 3.39-.1564992.3695049-.5187198.609673-.92.61z" fill="#fac176"/><path id="Shape" d="m53 40.71c-.1344044.0034762-.2678183-.0238907-.39-.08-.5077826-.2157051-.7449432-.8018944-.53-1.31 2.5067745-5.974368 2.5067745-12.705632 0-18.68-.2149432-.5081056.0222174-1.0942949.53-1.31.5081056-.2149432 1.0942949.0222174 1.31.53 2.7201772 6.4724808 2.7201772 13.7675192 0 20.24-.1564992.3695049-.5187198.609673-.92.61z" fill="#f18d46"/><path id="Shape" d="m30 23.68s2.15-4.68 7-4.68c4.14 0 7 3.73 7 8.14 0 6.11-5.7 10.15-14 17.86-8.3-7.71-14-11.75-14-17.86 0-4.41 2.86-8.14 7-8.14 4.85 0 7 4.68 7 4.68z" fill="#ff5364"/><path id="Shape" d="m28 38c-.3951359-.0155566-.7439926-.2625-.89-.63l-3-7.46-1.11 3.41c-.1429939.4253709-.5518476.7033915-1 .68h-8c-.5522847 0-1-.4477153-1-1s.4477153-1 1-1h7.28l1.77-5.32c.1375721-.4073117.5200841-.6811098.95-.68.4350482-.0305261.8397061.2244083 1 .63l3.17 7.93 2-4c.171096-.3339662.5147571-.5440395.89-.5440395s.718904.2100733.89.5440395l1 1.95 2.19-5.85c.1394037-.4027774.5187806-.6729297.945-.6729297s.8055963.2701523.945.6729297l1.69 5.34h7.28c.5522847 0 1 .4477153 1 1s-.4477153 1-1 1h-8c-.4481524.0233915-.8570061-.2546291-1-.68l-1.06-3.32-2 5.35c-.1397328.3753439-.4899357.63111-.89.65-.3944408.0183332-.7627358-.1971586-.94-.55l-1.11-2.21-2.11 4.21c-.1694502.3362797-.5134418.5488587-.89.55z" fill="#ecf0f1"/></g></g></svg>